<mxfile host="65bd71144e" pages="7">
    <diagram id="9YUfMd6E4KthZk4kom6o" name="moderate_content">
        <mxGraphModel dx="951" dy="515" grid="1" gridSize="10" guides="1" tooltips="1" connect="1" arrows="1" fold="1" page="1" pageScale="1" pageWidth="850" pageHeight="1100" math="0" shadow="0">
            <root>
                <mxCell id="0"/>
                <mxCell id="1" parent="0"/>
                <mxCell id="Brh_mnJi5IMDe2LUyWTu-10" value="&lt;span style=&quot;color: rgba(237, 237, 237, 0); font-family: monospace; font-size: 0px; text-align: start;&quot;&gt;%3CmxGraphModel%3E%3Croot%3E%3CmxCell%20id%3D%220%22%2F%3E%3CmxCell%20id%3D%221%22%20parent%3D%220%22%2F%3E%3CmxCell%20id%3D%222%22%20value%3D%22%5Bmessage%5D%22%20style%3D%22html%3D1%3BverticalAlign%3Dbottom%3BendArrow%3Dblock%3Brounded%3D0%3BexitX%3D0.983%3BexitY%3D0.126%3BexitDx%3D0%3BexitDy%3D0%3BexitPerimeter%3D0%3B%22%20edge%3D%221%22%20parent%3D%221%22%3E%3CmxGeometry%20x%3D%220.0009%22%20relative%3D%221%22%20as%3D%22geometry%22%3E%3CmxPoint%20x%3D%22325%22%20y%3D%22240%22%20as%3D%22sourcePoint%22%2F%3E%3CmxPoint%20x%3D%22475%22%20y%3D%22240%22%20as%3D%22targetPoint%22%2F%3E%3CmxPoint%20as%3D%22offset%22%2F%3E%3C%2FmxGeometry%3E%3C%2FmxCell%3E%3C%2Froot%3E%3C%2FmxGraphModel%3E&lt;/span&gt;" style="html=1;points=[];perimeter=orthogonalPerimeter;fillColor=#ffe6cc;strokeColor=#d79b00;container=0;" parent="1" vertex="1">
                    <mxGeometry x="233.75" y="200" width="10" height="920" as="geometry"/>
                </mxCell>
                <mxCell id="krH2Hktch8SGsoItCmGY-56" value="" style="html=1;points=[];perimeter=orthogonalPerimeter;fillColor=#e1d5e7;strokeColor=#9673a6;container=0;" parent="1" vertex="1">
                    <mxGeometry x="713.75" y="840" width="10" height="160" as="geometry"/>
                </mxCell>
                <mxCell id="krH2Hktch8SGsoItCmGY-51" value="&lt;span style=&quot;color: rgba(237, 237, 237, 0); font-family: monospace; font-size: 0px; text-align: start;&quot;&gt;%3CmxGraphModel%3E%3Croot%3E%3CmxCell%20id%3D%220%22%2F%3E%3CmxCell%20id%3D%221%22%20parent%3D%220%22%2F%3E%3CmxCell%20id%3D%222%22%20value%3D%22%5Bmessage%5D%22%20style%3D%22html%3D1%3BverticalAlign%3Dbottom%3BendArrow%3Dblock%3Brounded%3D0%3BexitX%3D0.983%3BexitY%3D0.126%3BexitDx%3D0%3BexitDy%3D0%3BexitPerimeter%3D0%3B%22%20edge%3D%221%22%20parent%3D%221%22%3E%3CmxGeometry%20x%3D%220.0009%22%20relative%3D%221%22%20as%3D%22geometry%22%3E%3CmxPoint%20x%3D%22325%22%20y%3D%22240%22%20as%3D%22sourcePoint%22%2F%3E%3CmxPoint%20x%3D%22475%22%20y%3D%22240%22%20as%3D%22targetPoint%22%2F%3E%3CmxPoint%20as%3D%22offset%22%2F%3E%3C%2FmxGeometry%3E%3C%2FmxCell%3E%3C%2Froot%3E%3C%2FmxGraphModel%3E&lt;/span&gt;" style="html=1;points=[];perimeter=orthogonalPerimeter;fillColor=#D5E8D4;strokeColor=#82B366;container=0;" parent="1" vertex="1">
                    <mxGeometry x="555" y="800" width="10" height="240" as="geometry"/>
                </mxCell>
                <mxCell id="krH2Hktch8SGsoItCmGY-9" value="" style="group" parent="1" vertex="1" connectable="0">
                    <mxGeometry x="130" y="340" width="620" height="240" as="geometry"/>
                </mxCell>
                <mxCell id="krH2Hktch8SGsoItCmGY-10" value="alt" style="shape=umlFrame;whiteSpace=wrap;html=1;fillColor=#f5f5f5;fontColor=#333333;strokeColor=#666666;" parent="krH2Hktch8SGsoItCmGY-9" vertex="1">
                    <mxGeometry width="620" height="240" as="geometry"/>
                </mxCell>
                <mxCell id="krH2Hktch8SGsoItCmGY-11" value="&lt;b&gt;&lt;font style=&quot;color: rgb(0, 0, 255);&quot;&gt;[retrieval success]&lt;/font&gt;&lt;/b&gt;" style="text;html=1;align=center;verticalAlign=middle;resizable=0;points=[];autosize=1;strokeColor=none;fillColor=none;" parent="krH2Hktch8SGsoItCmGY-9" vertex="1">
                    <mxGeometry x="-10" y="29.99818181818182" width="130" height="30" as="geometry"/>
                </mxCell>
                <mxCell id="krH2Hktch8SGsoItCmGY-12" value="&lt;b&gt;&lt;font style=&quot;color: rgb(0, 0, 255);&quot;&gt;[retrieval failure]&lt;/font&gt;&lt;/b&gt;" style="text;html=1;align=center;verticalAlign=middle;resizable=0;points=[];autosize=1;strokeColor=none;fillColor=none;" parent="krH2Hktch8SGsoItCmGY-9" vertex="1">
                    <mxGeometry x="-10" y="130.00181818181818" width="120" height="30" as="geometry"/>
                </mxCell>
                <mxCell id="krH2Hktch8SGsoItCmGY-13" value="" style="endArrow=none;dashed=1;html=1;rounded=0;entryX=1;entryY=0.5;entryDx=0;entryDy=0;entryPerimeter=0;exitX=0.005;exitY=0.5;exitDx=0;exitDy=0;exitPerimeter=0;" parent="krH2Hktch8SGsoItCmGY-9" source="krH2Hktch8SGsoItCmGY-10" target="krH2Hktch8SGsoItCmGY-10" edge="1">
                    <mxGeometry width="50" height="50" relative="1" as="geometry">
                        <mxPoint y="119.56999999999998" as="sourcePoint"/>
                        <mxPoint x="620" y="120.28999999999989" as="targetPoint"/>
                    </mxGeometry>
                </mxCell>
                <mxCell id="krH2Hktch8SGsoItCmGY-58" value="" style="group" parent="1" vertex="1" connectable="0">
                    <mxGeometry x="130" y="860" width="620" height="240" as="geometry"/>
                </mxCell>
                <mxCell id="krH2Hktch8SGsoItCmGY-59" value="alt" style="shape=umlFrame;whiteSpace=wrap;html=1;fillColor=#f5f5f5;fontColor=#333333;strokeColor=#666666;" parent="krH2Hktch8SGsoItCmGY-58" vertex="1">
                    <mxGeometry width="620" height="240" as="geometry"/>
                </mxCell>
                <mxCell id="krH2Hktch8SGsoItCmGY-61" value="&lt;b&gt;&lt;font style=&quot;color: rgb(0, 0, 255);&quot;&gt;[failed to resolve]&lt;/font&gt;&lt;/b&gt;" style="text;html=1;align=center;verticalAlign=middle;resizable=0;points=[];autosize=1;strokeColor=none;fillColor=none;" parent="krH2Hktch8SGsoItCmGY-58" vertex="1">
                    <mxGeometry x="-10" y="130.00181818181818" width="120" height="30" as="geometry"/>
                </mxCell>
                <mxCell id="krH2Hktch8SGsoItCmGY-62" value="" style="endArrow=none;dashed=1;html=1;rounded=0;entryX=1;entryY=0.5;entryDx=0;entryDy=0;entryPerimeter=0;exitX=0.005;exitY=0.5;exitDx=0;exitDy=0;exitPerimeter=0;" parent="krH2Hktch8SGsoItCmGY-58" source="krH2Hktch8SGsoItCmGY-59" target="krH2Hktch8SGsoItCmGY-59" edge="1">
                    <mxGeometry width="50" height="50" relative="1" as="geometry">
                        <mxPoint y="119.56999999999998" as="sourcePoint"/>
                        <mxPoint x="620" y="120.28999999999989" as="targetPoint"/>
                    </mxGeometry>
                </mxCell>
                <mxCell id="krH2Hktch8SGsoItCmGY-60" value="&lt;b&gt;&lt;font style=&quot;color: rgb(0, 0, 255);&quot;&gt;[resolved successfully]&lt;/font&gt;&lt;/b&gt;" style="text;html=1;align=center;verticalAlign=middle;resizable=0;points=[];autosize=1;strokeColor=none;fillColor=none;" parent="krH2Hktch8SGsoItCmGY-58" vertex="1">
                    <mxGeometry x="-10" y="29.99818181818182" width="160" height="30" as="geometry"/>
                </mxCell>
                <mxCell id="krH2Hktch8SGsoItCmGY-20" value="&lt;span style=&quot;color: rgba(237, 237, 237, 0); font-family: monospace; font-size: 0px; text-align: start;&quot;&gt;%3CmxGraphModel%3E%3Croot%3E%3CmxCell%20id%3D%220%22%2F%3E%3CmxCell%20id%3D%221%22%20parent%3D%220%22%2F%3E%3CmxCell%20id%3D%222%22%20value%3D%22%5Bmessage%5D%22%20style%3D%22html%3D1%3BverticalAlign%3Dbottom%3BendArrow%3Dblock%3Brounded%3D0%3BexitX%3D0.983%3BexitY%3D0.126%3BexitDx%3D0%3BexitDy%3D0%3BexitPerimeter%3D0%3B%22%20edge%3D%221%22%20parent%3D%221%22%3E%3CmxGeometry%20x%3D%220.0009%22%20relative%3D%221%22%20as%3D%22geometry%22%3E%3CmxPoint%20x%3D%22325%22%20y%3D%22240%22%20as%3D%22sourcePoint%22%2F%3E%3CmxPoint%20x%3D%22475%22%20y%3D%22240%22%20as%3D%22targetPoint%22%2F%3E%3CmxPoint%20as%3D%22offset%22%2F%3E%3C%2FmxGeometry%3E%3C%2FmxCell%3E%3C%2Froot%3E%3C%2FmxGraphModel%3E&lt;/span&gt;" style="html=1;points=[];perimeter=orthogonalPerimeter;fillColor=#DAE8FC;strokeColor=#6C8EBF;container=0;" parent="1" vertex="1">
                    <mxGeometry x="395" y="760" width="10" height="320" as="geometry"/>
                </mxCell>
                <mxCell id="Al805DOzdkPpneg158_Z-17" value="requestDiscussion(discussionId)" style="html=1;verticalAlign=bottom;endArrow=block;rounded=0;entryX=0.003;entryY=-0.002;entryDx=0;entryDy=0;entryPerimeter=0;" parent="1" edge="1">
                    <mxGeometry x="0.0009" relative="1" as="geometry">
                        <mxPoint x="244" y="240" as="sourcePoint"/>
                        <mxPoint x="395.0300000000001" y="240.36" as="targetPoint"/>
                        <mxPoint as="offset"/>
                    </mxGeometry>
                </mxCell>
                <mxCell id="f-mqI0CYQHJbRvDZa1W0-10" value="getDiscussion()" style="html=1;verticalAlign=bottom;endArrow=block;rounded=0;exitX=1.143;exitY=0.126;exitDx=0;exitDy=0;exitPerimeter=0;entryX=0.006;entryY=0;entryDx=0;entryDy=0;entryPerimeter=0;" parent="1" source="Brh_mnJi5IMDe2LUyWTu-18" target="Brh_mnJi5IMDe2LUyWTu-24" edge="1">
                    <mxGeometry x="0.0009" relative="1" as="geometry">
                        <mxPoint x="404.8699999999999" y="279.6" as="sourcePoint"/>
                        <mxPoint x="555.0899999999999" y="280.15999999999997" as="targetPoint"/>
                        <mxPoint as="offset"/>
                    </mxGeometry>
                </mxCell>
                <mxCell id="hI0j3te1_Zp4ngGJVeRy-8" value="retreiveDiscussion()" style="html=1;verticalAlign=bottom;endArrow=block;rounded=0;exitX=0.992;exitY=0.255;exitDx=0;exitDy=0;exitPerimeter=0;entryX=-0.062;entryY=0.005;entryDx=0;entryDy=0;entryPerimeter=0;" parent="1" edge="1">
                    <mxGeometry x="0.0009" relative="1" as="geometry">
                        <mxPoint x="564.9999999999999" y="320.4" as="sourcePoint"/>
                        <mxPoint x="713.2100000000002" y="320" as="targetPoint"/>
                        <mxPoint as="offset"/>
                    </mxGeometry>
                </mxCell>
                <mxCell id="hI0j3te1_Zp4ngGJVeRy-11" style="rounded=0;orthogonalLoop=1;jettySize=auto;html=1;endArrow=open;endFill=0;dashed=1;exitX=0;exitY=1.001;exitDx=0;exitDy=0;exitPerimeter=0;entryX=1.005;entryY=0.834;entryDx=0;entryDy=0;entryPerimeter=0;" parent="1" edge="1">
                    <mxGeometry relative="1" as="geometry">
                        <mxPoint x="405.04999999999995" y="399.6400000000001" as="targetPoint"/>
                        <mxPoint x="555" y="399.6400000000001" as="sourcePoint"/>
                    </mxGeometry>
                </mxCell>
                <mxCell id="hI0j3te1_Zp4ngGJVeRy-12" value="discussions" style="edgeLabel;html=1;align=center;verticalAlign=bottom;resizable=0;points=[];container=0;" parent="hI0j3te1_Zp4ngGJVeRy-11" vertex="1" connectable="0">
                    <mxGeometry x="-0.0596" y="-1" relative="1" as="geometry">
                        <mxPoint as="offset"/>
                    </mxGeometry>
                </mxCell>
                <mxCell id="2" style="rounded=0;orthogonalLoop=1;jettySize=auto;html=1;endArrow=open;endFill=0;dashed=1;entryX=1.005;entryY=0.834;entryDx=0;entryDy=0;entryPerimeter=0;" parent="1" edge="1">
                    <mxGeometry relative="1" as="geometry">
                        <mxPoint x="78.74999999999994" y="600.0000000000001" as="targetPoint"/>
                        <mxPoint x="233.75" y="600" as="sourcePoint"/>
                    </mxGeometry>
                </mxCell>
                <mxCell id="3" value="display(result)" style="edgeLabel;html=1;align=center;verticalAlign=bottom;resizable=0;points=[];container=0;" parent="2" vertex="1" connectable="0">
                    <mxGeometry x="-0.0596" y="-1" relative="1" as="geometry">
                        <mxPoint as="offset"/>
                    </mxGeometry>
                </mxCell>
                <mxCell id="krH2Hktch8SGsoItCmGY-30" style="rounded=0;orthogonalLoop=1;jettySize=auto;html=1;endArrow=open;endFill=0;dashed=1;entryX=1.005;entryY=0.834;entryDx=0;entryDy=0;entryPerimeter=0;" parent="1" edge="1">
                    <mxGeometry relative="1" as="geometry">
                        <mxPoint x="78.74999999999994" y="1120" as="targetPoint"/>
                        <mxPoint x="233.75" y="1120" as="sourcePoint"/>
                    </mxGeometry>
                </mxCell>
                <mxCell id="krH2Hktch8SGsoItCmGY-31" value="display(result)" style="edgeLabel;html=1;align=center;verticalAlign=bottom;resizable=0;points=[];container=0;" parent="krH2Hktch8SGsoItCmGY-30" vertex="1" connectable="0">
                    <mxGeometry x="-0.0596" y="-1" relative="1" as="geometry">
                        <mxPoint as="offset"/>
                    </mxGeometry>
                </mxCell>
                <mxCell id="krH2Hktch8SGsoItCmGY-28" style="rounded=0;orthogonalLoop=1;jettySize=auto;html=1;endArrow=open;endFill=0;dashed=1;entryX=1.005;entryY=0.834;entryDx=0;entryDy=0;entryPerimeter=0;" parent="1" edge="1">
                    <mxGeometry relative="1" as="geometry">
                        <mxPoint x="239.99999999999994" y="960.0000000000001" as="targetPoint"/>
                        <mxPoint x="395" y="960" as="sourcePoint"/>
                    </mxGeometry>
                </mxCell>
                <mxCell id="krH2Hktch8SGsoItCmGY-29" value="show(result{status=&#39;success&#39;})" style="edgeLabel;html=1;align=center;verticalAlign=bottom;resizable=0;points=[];container=0;labelBackgroundColor=none;" parent="krH2Hktch8SGsoItCmGY-28" vertex="1" connectable="0">
                    <mxGeometry x="-0.0596" y="-1" relative="1" as="geometry">
                        <mxPoint as="offset"/>
                    </mxGeometry>
                </mxCell>
                <mxCell id="krH2Hktch8SGsoItCmGY-44" style="rounded=0;orthogonalLoop=1;jettySize=auto;html=1;endArrow=open;endFill=0;dashed=1;" parent="1" edge="1">
                    <mxGeometry relative="1" as="geometry">
                        <mxPoint x="250" y="1080" as="targetPoint"/>
                        <mxPoint x="388.75" y="1080" as="sourcePoint"/>
                    </mxGeometry>
                </mxCell>
                <mxCell id="krH2Hktch8SGsoItCmGY-45" value="show(result{status=&#39;error&#39;, data=error})" style="edgeLabel;html=1;align=center;verticalAlign=bottom;resizable=0;points=[];container=0;labelBackgroundColor=none;" parent="krH2Hktch8SGsoItCmGY-44" vertex="1" connectable="0">
                    <mxGeometry x="-0.0596" y="-1" relative="1" as="geometry">
                        <mxPoint as="offset"/>
                    </mxGeometry>
                </mxCell>
                <mxCell id="krH2Hktch8SGsoItCmGY-24" style="rounded=0;orthogonalLoop=1;jettySize=auto;html=1;endArrow=open;endFill=0;dashed=1;entryX=1.005;entryY=0.834;entryDx=0;entryDy=0;entryPerimeter=0;" parent="1" edge="1">
                    <mxGeometry relative="1" as="geometry">
                        <mxPoint x="565" y="880.0000000000001" as="targetPoint"/>
                        <mxPoint x="720" y="880" as="sourcePoint"/>
                    </mxGeometry>
                </mxCell>
                <mxCell id="krH2Hktch8SGsoItCmGY-25" value="ok" style="edgeLabel;html=1;align=center;verticalAlign=bottom;resizable=0;points=[];container=0;" parent="krH2Hktch8SGsoItCmGY-24" vertex="1" connectable="0">
                    <mxGeometry x="-0.0596" y="-1" relative="1" as="geometry">
                        <mxPoint as="offset"/>
                    </mxGeometry>
                </mxCell>
                <mxCell id="krH2Hktch8SGsoItCmGY-40" style="rounded=0;orthogonalLoop=1;jettySize=auto;html=1;endArrow=open;endFill=0;dashed=1;entryX=1.005;entryY=0.834;entryDx=0;entryDy=0;entryPerimeter=0;" parent="1" edge="1">
                    <mxGeometry relative="1" as="geometry">
                        <mxPoint x="565" y="1000.0000000000001" as="targetPoint"/>
                        <mxPoint x="720" y="1000" as="sourcePoint"/>
                    </mxGeometry>
                </mxCell>
                <mxCell id="krH2Hktch8SGsoItCmGY-41" value="error" style="edgeLabel;html=1;align=center;verticalAlign=bottom;resizable=0;points=[];container=0;" parent="krH2Hktch8SGsoItCmGY-40" vertex="1" connectable="0">
                    <mxGeometry x="-0.0596" y="-1" relative="1" as="geometry">
                        <mxPoint as="offset"/>
                    </mxGeometry>
                </mxCell>
                <mxCell id="krH2Hktch8SGsoItCmGY-26" style="rounded=0;orthogonalLoop=1;jettySize=auto;html=1;endArrow=open;endFill=0;dashed=1;entryX=1.005;entryY=0.834;entryDx=0;entryDy=0;entryPerimeter=0;" parent="1" edge="1">
                    <mxGeometry relative="1" as="geometry">
                        <mxPoint x="405" y="919.6000000000001" as="targetPoint"/>
                        <mxPoint x="560" y="919.6" as="sourcePoint"/>
                    </mxGeometry>
                </mxCell>
                <mxCell id="krH2Hktch8SGsoItCmGY-27" value="ok" style="edgeLabel;html=1;align=center;verticalAlign=bottom;resizable=0;points=[];container=0;" parent="krH2Hktch8SGsoItCmGY-26" vertex="1" connectable="0">
                    <mxGeometry x="-0.0596" y="-1" relative="1" as="geometry">
                        <mxPoint as="offset"/>
                    </mxGeometry>
                </mxCell>
                <mxCell id="krH2Hktch8SGsoItCmGY-42" style="rounded=0;orthogonalLoop=1;jettySize=auto;html=1;endArrow=open;endFill=0;dashed=1;entryX=1.005;entryY=0.834;entryDx=0;entryDy=0;entryPerimeter=0;" parent="1" edge="1">
                    <mxGeometry relative="1" as="geometry">
                        <mxPoint x="405" y="1039.6000000000001" as="targetPoint"/>
                        <mxPoint x="560" y="1039.6" as="sourcePoint"/>
                    </mxGeometry>
                </mxCell>
                <mxCell id="krH2Hktch8SGsoItCmGY-43" value="error" style="edgeLabel;html=1;align=center;verticalAlign=bottom;resizable=0;points=[];container=0;" parent="krH2Hktch8SGsoItCmGY-42" vertex="1" connectable="0">
                    <mxGeometry x="-0.0596" y="-1" relative="1" as="geometry">
                        <mxPoint as="offset"/>
                    </mxGeometry>
                </mxCell>
                <mxCell id="hI0j3te1_Zp4ngGJVeRy-13" style="rounded=0;orthogonalLoop=1;jettySize=auto;html=1;endArrow=open;endFill=0;dashed=1;exitX=-0.037;exitY=0.998;exitDx=0;exitDy=0;exitPerimeter=0;entryX=1.004;entryY=0.749;entryDx=0;entryDy=0;entryPerimeter=0;" parent="1" edge="1">
                    <mxGeometry relative="1" as="geometry">
                        <mxPoint x="565" y="359.63999999999993" as="targetPoint"/>
                        <mxPoint x="714.2099999999998" y="359.63999999999993" as="sourcePoint"/>
                    </mxGeometry>
                </mxCell>
                <mxCell id="hI0j3te1_Zp4ngGJVeRy-14" value="discussion" style="edgeLabel;html=1;align=center;verticalAlign=bottom;resizable=0;points=[];container=0;" parent="hI0j3te1_Zp4ngGJVeRy-13" vertex="1" connectable="0">
                    <mxGeometry x="-0.0596" y="-1" relative="1" as="geometry">
                        <mxPoint as="offset"/>
                    </mxGeometry>
                </mxCell>
                <mxCell id="Brh_mnJi5IMDe2LUyWTu-4" value="viewDiscussion(discussionId)" style="html=1;verticalAlign=bottom;endArrow=block;rounded=0;entryX=0.018;entryY=0;entryDx=0;entryDy=0;entryPerimeter=0;exitX=0.486;exitY=0.001;exitDx=0;exitDy=0;exitPerimeter=0;" parent="1" source="Brh_mnJi5IMDe2LUyWTu-5" target="Brh_mnJi5IMDe2LUyWTu-10" edge="1">
                    <mxGeometry x="0.0009" relative="1" as="geometry">
                        <mxPoint x="80" y="200" as="sourcePoint"/>
                        <mxPoint x="235.42000000000007" y="199.3599999999999" as="targetPoint"/>
                        <mxPoint as="offset"/>
                    </mxGeometry>
                </mxCell>
                <mxCell id="krH2Hktch8SGsoItCmGY-18" value="clickInitDispute(discussionId, reason)" style="html=1;verticalAlign=bottom;endArrow=block;rounded=0;entryX=0.018;entryY=0;entryDx=0;entryDy=0;entryPerimeter=0;exitX=0.486;exitY=0.001;exitDx=0;exitDy=0;exitPerimeter=0;" parent="1" edge="1">
                    <mxGeometry x="0.0009" relative="1" as="geometry">
                        <mxPoint x="79.75" y="720" as="sourcePoint"/>
                        <mxPoint x="233.75" y="720" as="targetPoint"/>
                        <mxPoint as="offset"/>
                    </mxGeometry>
                </mxCell>
                <mxCell id="krH2Hktch8SGsoItCmGY-21" value="&lt;span&gt;requestDispute(discussionId, reason)&lt;/span&gt;" style="html=1;verticalAlign=bottom;endArrow=block;rounded=0;entryX=0.018;entryY=0;entryDx=0;entryDy=0;entryPerimeter=0;exitX=0.486;exitY=0.001;exitDx=0;exitDy=0;exitPerimeter=0;labelBackgroundColor=none;" parent="1" edge="1">
                    <mxGeometry x="0.0009" relative="1" as="geometry">
                        <mxPoint x="241" y="760" as="sourcePoint"/>
                        <mxPoint x="395" y="760" as="targetPoint"/>
                        <mxPoint as="offset"/>
                    </mxGeometry>
                </mxCell>
                <mxCell id="krH2Hktch8SGsoItCmGY-22" value="&lt;span&gt;openDispute(discussionId, reason)&lt;/span&gt;" style="html=1;verticalAlign=bottom;endArrow=block;rounded=0;entryX=0.018;entryY=0;entryDx=0;entryDy=0;entryPerimeter=0;exitX=0.486;exitY=0.001;exitDx=0;exitDy=0;exitPerimeter=0;labelBackgroundColor=none;" parent="1" edge="1">
                    <mxGeometry x="0.0043" relative="1" as="geometry">
                        <mxPoint x="405" y="800" as="sourcePoint"/>
                        <mxPoint x="559" y="800" as="targetPoint"/>
                        <mxPoint as="offset"/>
                    </mxGeometry>
                </mxCell>
                <mxCell id="krH2Hktch8SGsoItCmGY-38" value="writeLog(dispute.contentId, flag=action)" style="html=1;verticalAlign=bottom;endArrow=block;rounded=0;exitX=0.486;exitY=0.001;exitDx=0;exitDy=0;exitPerimeter=0;labelBackgroundColor=none;" parent="1" edge="1">
                    <mxGeometry x="0.0009" relative="1" as="geometry">
                        <mxPoint x="405" y="940" as="sourcePoint"/>
                        <mxPoint x="820" y="940" as="targetPoint"/>
                        <mxPoint as="offset"/>
                    </mxGeometry>
                </mxCell>
                <mxCell id="krH2Hktch8SGsoItCmGY-23" value="openDispute(discussionId, reason, createdAt=now())" style="html=1;verticalAlign=bottom;endArrow=block;rounded=0;entryX=0.018;entryY=0;entryDx=0;entryDy=0;entryPerimeter=0;exitX=0.486;exitY=0.001;exitDx=0;exitDy=0;exitPerimeter=0;labelBackgroundColor=none;" parent="1" edge="1">
                    <mxGeometry x="0.0009" relative="1" as="geometry">
                        <mxPoint x="565" y="840" as="sourcePoint"/>
                        <mxPoint x="719" y="840" as="targetPoint"/>
                        <mxPoint as="offset"/>
                    </mxGeometry>
                </mxCell>
                <mxCell id="RKpe-7u0rJ-MWehzNpvw-2" value="Contributor" style="shape=umlActor;verticalLabelPosition=middle;verticalAlign=top;html=1;outlineConnect=0;strokeColor=light-dark(#B85450,#D7817E);fillColor=light-dark(#F8CECC,#512D2B);labelPosition=center;align=center;spacingTop=36;container=0;" parent="1" vertex="1">
                    <mxGeometry x="70" y="1160" width="20" height="40" as="geometry"/>
                </mxCell>
                <mxCell id="RKpe-7u0rJ-MWehzNpvw-3" value="" style="endArrow=none;html=1;rounded=0;entryX=0.5;entryY=0;entryDx=0;entryDy=0;entryPerimeter=0;dashed=1;strokeColor=#B85450;" parent="1" source="Al805DOzdkPpneg158_Z-26" target="RKpe-7u0rJ-MWehzNpvw-2" edge="1">
                    <mxGeometry width="50" height="50" relative="1" as="geometry">
                        <mxPoint x="170" y="390" as="sourcePoint"/>
                        <mxPoint x="220" y="340" as="targetPoint"/>
                    </mxGeometry>
                </mxCell>
                <mxCell id="Brh_mnJi5IMDe2LUyWTu-15" value="Moderation controller" style="rounded=0;whiteSpace=wrap;html=1;strokeColor=#6C8EBF;fillColor=#DAE8FC;container=0;" parent="1" vertex="1">
                    <mxGeometry x="350" y="1160" width="100" height="40" as="geometry"/>
                </mxCell>
                <mxCell id="Brh_mnJi5IMDe2LUyWTu-17" value="" style="endArrow=none;html=1;rounded=0;entryX=0.5;entryY=1;entryDx=0;entryDy=0;exitX=0.428;exitY=-0.006;exitDx=0;exitDy=0;strokeColor=#6C8EBF;dashed=1;exitPerimeter=0;" parent="1" source="krH2Hktch8SGsoItCmGY-20" target="Brh_mnJi5IMDe2LUyWTu-18" edge="1">
                    <mxGeometry width="50" height="50" relative="1" as="geometry">
                        <mxPoint x="400" y="599.9999999999999" as="sourcePoint"/>
                        <mxPoint x="400" y="580" as="targetPoint"/>
                    </mxGeometry>
                </mxCell>
                <mxCell id="krH2Hktch8SGsoItCmGY-54" value="" style="endArrow=none;html=1;rounded=0;entryX=0.509;entryY=1.01;entryDx=0;entryDy=0;exitX=0.5;exitY=0;exitDx=0;exitDy=0;strokeColor=#6C8EBF;dashed=1;entryPerimeter=0;" parent="1" source="Brh_mnJi5IMDe2LUyWTu-15" target="krH2Hktch8SGsoItCmGY-20" edge="1">
                    <mxGeometry width="50" height="50" relative="1" as="geometry">
                        <mxPoint x="470" y="1588" as="sourcePoint"/>
                        <mxPoint x="471" y="1390" as="targetPoint"/>
                    </mxGeometry>
                </mxCell>
                <mxCell id="Brh_mnJi5IMDe2LUyWTu-21" value="Dispute" style="rounded=0;whiteSpace=wrap;html=1;strokeColor=#82B366;fillColor=#D5E8D4;container=0;" parent="1" vertex="1">
                    <mxGeometry x="510" y="1160" width="100" height="40" as="geometry"/>
                </mxCell>
                <mxCell id="Brh_mnJi5IMDe2LUyWTu-23" value="" style="endArrow=none;html=1;rounded=0;entryX=0.5;entryY=1;entryDx=0;entryDy=0;strokeColor=#82B366;dashed=1;" parent="1" target="Brh_mnJi5IMDe2LUyWTu-24" edge="1">
                    <mxGeometry width="50" height="50" relative="1" as="geometry">
                        <mxPoint x="560" y="740" as="sourcePoint"/>
                        <mxPoint x="560" y="580" as="targetPoint"/>
                    </mxGeometry>
                </mxCell>
                <mxCell id="krH2Hktch8SGsoItCmGY-53" value="" style="endArrow=none;html=1;rounded=0;strokeColor=#82B366;dashed=1;exitX=0.5;exitY=0;exitDx=0;exitDy=0;" parent="1" source="Brh_mnJi5IMDe2LUyWTu-21" edge="1">
                    <mxGeometry width="50" height="50" relative="1" as="geometry">
                        <mxPoint x="600" y="1460" as="sourcePoint"/>
                        <mxPoint x="560" y="1040" as="targetPoint"/>
                    </mxGeometry>
                </mxCell>
                <mxCell id="f-mqI0CYQHJbRvDZa1W0-15" value="Database" style="shape=cylinder3;whiteSpace=wrap;html=1;boundedLbl=1;backgroundOutline=1;size=15;strokeColor=#9673A6;fillColor=#E1D5E7;spacingTop=36;container=0;" parent="1" vertex="1">
                    <mxGeometry x="700" y="1160" width="37.5" height="50" as="geometry"/>
                </mxCell>
                <mxCell id="f-mqI0CYQHJbRvDZa1W0-14" value="" style="endArrow=none;html=1;rounded=0;entryX=0.5;entryY=1;entryDx=0;entryDy=0;entryPerimeter=0;exitX=0.5;exitY=0;exitDx=0;exitDy=0;exitPerimeter=0;dashed=1;strokeColor=#9673A6;" parent="1" source="krH2Hktch8SGsoItCmGY-56" target="f-mqI0CYQHJbRvDZa1W0-7" edge="1">
                    <mxGeometry width="50" height="50" relative="1" as="geometry">
                        <mxPoint x="508.75" y="310" as="sourcePoint"/>
                        <mxPoint x="558.75" y="260" as="targetPoint"/>
                    </mxGeometry>
                </mxCell>
                <mxCell id="Brh_mnJi5IMDe2LUyWTu-8" value="&lt;div&gt;&lt;span style=&quot;background-color: transparent;&quot;&gt;Moderation panel&lt;/span&gt;&lt;/div&gt;" style="rounded=0;whiteSpace=wrap;html=1;strokeColor=#D79B00;fillColor=#FFE6CC;container=0;" parent="1" vertex="1">
                    <mxGeometry x="188.75" y="1160" width="100" height="40" as="geometry"/>
                </mxCell>
                <mxCell id="Brh_mnJi5IMDe2LUyWTu-14" value="Moderation controller" style="rounded=0;whiteSpace=wrap;html=1;strokeColor=#6C8EBF;fillColor=#DAE8FC;container=0;" parent="1" vertex="1">
                    <mxGeometry x="350" y="120" width="100" height="40" as="geometry"/>
                </mxCell>
                <mxCell id="Brh_mnJi5IMDe2LUyWTu-16" value="" style="endArrow=none;html=1;rounded=0;entryX=0.5;entryY=1;entryDx=0;entryDy=0;exitX=0.5;exitY=0;exitDx=0;exitDy=0;strokeColor=#6C8EBF;dashed=1;" parent="1" source="Brh_mnJi5IMDe2LUyWTu-18" target="Brh_mnJi5IMDe2LUyWTu-14" edge="1">
                    <mxGeometry width="50" height="50" relative="1" as="geometry">
                        <mxPoint x="390" y="620" as="sourcePoint"/>
                        <mxPoint x="440" y="570" as="targetPoint"/>
                    </mxGeometry>
                </mxCell>
                <mxCell id="Brh_mnJi5IMDe2LUyWTu-18" value="&lt;span style=&quot;color: rgba(237, 237, 237, 0); font-family: monospace; font-size: 0px; text-align: start;&quot;&gt;%3CmxGraphModel%3E%3Croot%3E%3CmxCell%20id%3D%220%22%2F%3E%3CmxCell%20id%3D%221%22%20parent%3D%220%22%2F%3E%3CmxCell%20id%3D%222%22%20value%3D%22%5Bmessage%5D%22%20style%3D%22html%3D1%3BverticalAlign%3Dbottom%3BendArrow%3Dblock%3Brounded%3D0%3BexitX%3D0.983%3BexitY%3D0.126%3BexitDx%3D0%3BexitDy%3D0%3BexitPerimeter%3D0%3B%22%20edge%3D%221%22%20parent%3D%221%22%3E%3CmxGeometry%20x%3D%220.0009%22%20relative%3D%221%22%20as%3D%22geometry%22%3E%3CmxPoint%20x%3D%22325%22%20y%3D%22240%22%20as%3D%22sourcePoint%22%2F%3E%3CmxPoint%20x%3D%22475%22%20y%3D%22240%22%20as%3D%22targetPoint%22%2F%3E%3CmxPoint%20as%3D%22offset%22%2F%3E%3C%2FmxGeometry%3E%3C%2FmxCell%3E%3C%2Froot%3E%3C%2FmxGraphModel%3E&lt;/span&gt;" style="html=1;points=[];perimeter=orthogonalPerimeter;fillColor=#DAE8FC;strokeColor=#6C8EBF;container=0;" parent="1" vertex="1">
                    <mxGeometry x="395" y="240" width="10" height="320" as="geometry"/>
                </mxCell>
                <mxCell id="Brh_mnJi5IMDe2LUyWTu-7" value="&lt;div&gt;&lt;span style=&quot;background-color: transparent;&quot;&gt;DiscussionsPage&lt;/span&gt;&lt;/div&gt;" style="rounded=0;whiteSpace=wrap;html=1;strokeColor=#D79B00;fillColor=#FFE6CC;container=0;" parent="1" vertex="1">
                    <mxGeometry x="188.75" y="120" width="100" height="40" as="geometry"/>
                </mxCell>
                <mxCell id="Brh_mnJi5IMDe2LUyWTu-9" value="" style="endArrow=none;html=1;rounded=0;entryX=0.5;entryY=1;entryDx=0;entryDy=0;exitX=0.5;exitY=0;exitDx=0;exitDy=0;strokeColor=#D79B00;dashed=1;" parent="1" source="Brh_mnJi5IMDe2LUyWTu-10" target="Brh_mnJi5IMDe2LUyWTu-7" edge="1">
                    <mxGeometry width="50" height="50" relative="1" as="geometry">
                        <mxPoint x="228.75" y="620" as="sourcePoint"/>
                        <mxPoint x="278.75" y="570" as="targetPoint"/>
                    </mxGeometry>
                </mxCell>
                <mxCell id="krH2Hktch8SGsoItCmGY-55" value="" style="endArrow=none;html=1;rounded=0;entryX=0.495;entryY=1.001;entryDx=0;entryDy=0;exitX=0.5;exitY=0;exitDx=0;exitDy=0;strokeColor=#D79B00;dashed=1;entryPerimeter=0;" parent="1" source="Brh_mnJi5IMDe2LUyWTu-8" target="Brh_mnJi5IMDe2LUyWTu-10" edge="1">
                    <mxGeometry width="50" height="50" relative="1" as="geometry">
                        <mxPoint x="220" y="1290" as="sourcePoint"/>
                        <mxPoint x="220" y="1250" as="targetPoint"/>
                    </mxGeometry>
                </mxCell>
                <mxCell id="8" style="rounded=0;orthogonalLoop=1;jettySize=auto;html=1;endArrow=open;endFill=0;dashed=1;exitX=-0.002;exitY=1.001;exitDx=0;exitDy=0;exitPerimeter=0;entryX=0.998;entryY=0.876;entryDx=0;entryDy=0;entryPerimeter=0;" parent="1" edge="1">
                    <mxGeometry relative="1" as="geometry">
                        <mxPoint x="243.74999999999991" y="560.0799999999999" as="targetPoint"/>
                        <mxPoint x="393.7499999999999" y="559.9999999999999" as="sourcePoint"/>
                    </mxGeometry>
                </mxCell>
                <mxCell id="9" value="show(result{status=&#39;error&#39;, data=error})" style="edgeLabel;html=1;align=center;verticalAlign=bottom;resizable=0;points=[];labelBackgroundColor=none;container=0;" parent="8" vertex="1" connectable="0">
                    <mxGeometry x="-0.0596" y="-1" relative="1" as="geometry">
                        <mxPoint x="-4" y="1" as="offset"/>
                    </mxGeometry>
                </mxCell>
                <mxCell id="f-mqI0CYQHJbRvDZa1W0-7" value="Database" style="shape=cylinder3;whiteSpace=wrap;html=1;boundedLbl=1;backgroundOutline=1;size=15;strokeColor=#9673A6;fillColor=#E1D5E7;verticalAlign=middle;spacingTop=36;container=0;" parent="1" vertex="1">
                    <mxGeometry x="700" y="110" width="37.5" height="50" as="geometry"/>
                </mxCell>
                <mxCell id="Al805DOzdkPpneg158_Z-13" value="" style="html=1;points=[];perimeter=orthogonalPerimeter;fillColor=#e1d5e7;strokeColor=#9673a6;container=0;" parent="1" vertex="1">
                    <mxGeometry x="713.75" y="320" width="10" height="160" as="geometry"/>
                </mxCell>
                <mxCell id="Al805DOzdkPpneg158_Z-26" value="Contributor" style="shape=umlActor;verticalLabelPosition=middle;verticalAlign=top;html=1;outlineConnect=0;strokeColor=light-dark(#B85450,#D7817E);fillColor=light-dark(#F8CECC,#512D2B);labelPosition=center;align=center;spacingTop=36;container=0;" parent="1" vertex="1">
                    <mxGeometry x="70" y="120" width="20" height="40" as="geometry"/>
                </mxCell>
                <mxCell id="Brh_mnJi5IMDe2LUyWTu-5" value="&lt;span style=&quot;color: rgba(0, 0, 0, 0); font-family: monospace; font-size: 0px; text-align: start;&quot;&gt;%3CmxGraphModel%3E%3Croot%3E%3CmxCell%20id%3D%220%22%2F%3E%3CmxCell%20id%3D%221%22%20parent%3D%220%22%2F%3E%3CmxCell%20id%3D%222%22%20value%3D%22%5Bmessage%5D%22%20style%3D%22html%3D1%3BverticalAlign%3Dbottom%3BendArrow%3Dblock%3Brounded%3D0%3BexitX%3D0.983%3BexitY%3D0.126%3BexitDx%3D0%3BexitDy%3D0%3BexitPerimeter%3D0%3B%22%20edge%3D%221%22%20parent%3D%221%22%3E%3CmxGeometry%20x%3D%220.0009%22%20relative%3D%221%22%20as%3D%22geometry%22%3E%3CmxPoint%20x%3D%22325%22%20y%3D%22240%22%20as%3D%22sourcePoint%22%2F%3E%3CmxPoint%20x%3D%22475%22%20y%3D%22240%22%20as%3D%22targetPoint%22%2F%3E%3CmxPoint%20as%3D%22offset%22%2F%3E%3C%2FmxGeometry%3E%3C%2FmxCell%3E%3C%2Froot%3E%3C%2FmxGraphModel%3E&lt;/span&gt;" style="html=1;points=[];perimeter=orthogonalPerimeter;fillColor=#FFE6CC00;strokeColor=#D79B0000;container=0;" parent="1" vertex="1">
                    <mxGeometry x="75" y="200" width="10" height="320" as="geometry"/>
                </mxCell>
                <mxCell id="Brh_mnJi5IMDe2LUyWTu-20" value="Dispute" style="rounded=0;whiteSpace=wrap;html=1;strokeColor=#82B366;fillColor=#D5E8D4;container=0;" parent="1" vertex="1">
                    <mxGeometry x="510" y="120" width="100" height="40" as="geometry"/>
                </mxCell>
                <mxCell id="Brh_mnJi5IMDe2LUyWTu-22" value="" style="endArrow=none;html=1;rounded=0;entryX=0.5;entryY=1;entryDx=0;entryDy=0;exitX=0.5;exitY=0;exitDx=0;exitDy=0;strokeColor=#82B366;dashed=1;" parent="1" source="Brh_mnJi5IMDe2LUyWTu-24" target="Brh_mnJi5IMDe2LUyWTu-20" edge="1">
                    <mxGeometry width="50" height="50" relative="1" as="geometry">
                        <mxPoint x="550" y="620" as="sourcePoint"/>
                        <mxPoint x="600" y="570" as="targetPoint"/>
                    </mxGeometry>
                </mxCell>
                <mxCell id="Brh_mnJi5IMDe2LUyWTu-24" value="&lt;span style=&quot;color: rgba(237, 237, 237, 0); font-family: monospace; font-size: 0px; text-align: start;&quot;&gt;%3CmxGraphModel%3E%3Croot%3E%3CmxCell%20id%3D%220%22%2F%3E%3CmxCell%20id%3D%221%22%20parent%3D%220%22%2F%3E%3CmxCell%20id%3D%222%22%20value%3D%22%5Bmessage%5D%22%20style%3D%22html%3D1%3BverticalAlign%3Dbottom%3BendArrow%3Dblock%3Brounded%3D0%3BexitX%3D0.983%3BexitY%3D0.126%3BexitDx%3D0%3BexitDy%3D0%3BexitPerimeter%3D0%3B%22%20edge%3D%221%22%20parent%3D%221%22%3E%3CmxGeometry%20x%3D%220.0009%22%20relative%3D%221%22%20as%3D%22geometry%22%3E%3CmxPoint%20x%3D%22325%22%20y%3D%22240%22%20as%3D%22sourcePoint%22%2F%3E%3CmxPoint%20x%3D%22475%22%20y%3D%22240%22%20as%3D%22targetPoint%22%2F%3E%3CmxPoint%20as%3D%22offset%22%2F%3E%3C%2FmxGeometry%3E%3C%2FmxCell%3E%3C%2Froot%3E%3C%2FmxGraphModel%3E&lt;/span&gt;" style="html=1;points=[];perimeter=orthogonalPerimeter;fillColor=#D5E8D4;strokeColor=#82B366;container=0;" parent="1" vertex="1">
                    <mxGeometry x="555" y="280" width="10" height="240" as="geometry"/>
                </mxCell>
                <mxCell id="4" style="rounded=0;orthogonalLoop=1;jettySize=auto;html=1;endArrow=open;endFill=0;dashed=1;exitX=-0.037;exitY=0.998;exitDx=0;exitDy=0;exitPerimeter=0;entryX=1.004;entryY=0.749;entryDx=0;entryDy=0;entryPerimeter=0;" parent="1" edge="1">
                    <mxGeometry relative="1" as="geometry">
                        <mxPoint x="565" y="479.99999999999994" as="targetPoint"/>
                        <mxPoint x="714.2099999999998" y="479.99999999999994" as="sourcePoint"/>
                    </mxGeometry>
                </mxCell>
                <mxCell id="5" value="error" style="edgeLabel;html=1;align=center;verticalAlign=bottom;resizable=0;points=[];container=0;" parent="4" vertex="1" connectable="0">
                    <mxGeometry x="-0.0596" y="-1" relative="1" as="geometry">
                        <mxPoint as="offset"/>
                    </mxGeometry>
                </mxCell>
                <mxCell id="6" style="rounded=0;orthogonalLoop=1;jettySize=auto;html=1;endArrow=open;endFill=0;dashed=1;exitX=-0.037;exitY=0.998;exitDx=0;exitDy=0;exitPerimeter=0;entryX=1.004;entryY=0.749;entryDx=0;entryDy=0;entryPerimeter=0;" parent="1" edge="1">
                    <mxGeometry relative="1" as="geometry">
                        <mxPoint x="405.78999999999996" y="520" as="targetPoint"/>
                        <mxPoint x="554.9999999999998" y="520" as="sourcePoint"/>
                    </mxGeometry>
                </mxCell>
                <mxCell id="7" value="error" style="edgeLabel;html=1;align=center;verticalAlign=bottom;resizable=0;points=[];container=0;" parent="6" vertex="1" connectable="0">
                    <mxGeometry x="-0.0596" y="-1" relative="1" as="geometry">
                        <mxPoint as="offset"/>
                    </mxGeometry>
                </mxCell>
                <mxCell id="hI0j3te1_Zp4ngGJVeRy-9" style="rounded=0;orthogonalLoop=1;jettySize=auto;html=1;endArrow=open;endFill=0;dashed=1;exitX=-0.002;exitY=1.001;exitDx=0;exitDy=0;exitPerimeter=0;entryX=0.998;entryY=0.876;entryDx=0;entryDy=0;entryPerimeter=0;" parent="1" edge="1">
                    <mxGeometry relative="1" as="geometry">
                        <mxPoint x="244.99999999999991" y="440.0799999999999" as="targetPoint"/>
                        <mxPoint x="394.9999999999999" y="439.9999999999999" as="sourcePoint"/>
                    </mxGeometry>
                </mxCell>
                <mxCell id="hI0j3te1_Zp4ngGJVeRy-10" value="show(result{status=&#39;success&#39;, data=discussion})" style="edgeLabel;html=1;align=center;verticalAlign=bottom;resizable=0;points=[];labelBackgroundColor=none;container=0;" parent="hI0j3te1_Zp4ngGJVeRy-9" vertex="1" connectable="0">
                    <mxGeometry x="-0.0596" y="-1" relative="1" as="geometry">
                        <mxPoint as="offset"/>
                    </mxGeometry>
                </mxCell>
                <mxCell id="krH2Hktch8SGsoItCmGY-39" value="" style="ellipse;whiteSpace=wrap;html=1;aspect=fixed;labelBackgroundColor=none;fillColor=#000000;" parent="1" vertex="1">
                    <mxGeometry x="820" y="930" width="20" height="20" as="geometry"/>
                </mxCell>
                <mxCell id="krH2Hktch8SGsoItCmGY-57" value="" style="endArrow=none;html=1;rounded=0;entryX=0.5;entryY=1;entryDx=0;entryDy=0;entryPerimeter=0;exitX=0.5;exitY=0;exitDx=0;exitDy=0;exitPerimeter=0;dashed=1;strokeColor=#9673A6;" parent="1" source="f-mqI0CYQHJbRvDZa1W0-15" target="krH2Hktch8SGsoItCmGY-56" edge="1">
                    <mxGeometry width="50" height="50" relative="1" as="geometry">
                        <mxPoint x="719" y="1160" as="sourcePoint"/>
                        <mxPoint x="719" y="160" as="targetPoint"/>
                    </mxGeometry>
                </mxCell>
            </root>
        </mxGraphModel>
    </diagram>
</mxfile>